<svg width="1392" height="550" viewBox="0 0 1392 550" fill="none" xmlns="http://www.w3.org/2000/svg">
<path opacity="0.7" d="M450.028 279H394.062V133.545H449.46C464.422 133.545 477.348 136.457 488.239 142.281C499.176 148.058 507.604 156.391 513.523 167.281C519.489 178.124 522.472 191.121 522.472 206.273C522.472 221.424 519.512 234.445 513.594 245.335C507.675 256.178 499.295 264.511 488.452 270.335C477.609 276.112 464.801 279 450.028 279ZM433.551 245.477H448.608C455.805 245.477 461.937 244.317 467.003 241.997C472.116 239.677 475.999 235.676 478.651 229.994C481.349 224.312 482.699 216.405 482.699 206.273C482.699 196.14 481.326 188.233 478.58 182.551C475.881 176.869 471.903 172.868 466.648 170.548C461.439 168.228 455.047 167.068 447.472 167.068H433.551V245.477ZM593.867 280.989C582.03 280.989 571.897 278.645 563.469 273.957C555.041 269.223 548.578 262.641 544.08 254.213C539.582 245.738 537.333 235.913 537.333 224.739C537.333 213.564 539.582 203.763 544.08 195.335C548.578 186.86 555.041 180.278 563.469 175.591C571.897 170.856 582.03 168.489 593.867 168.489C605.704 168.489 615.837 170.856 624.265 175.591C632.693 180.278 639.156 186.86 643.654 195.335C648.152 203.763 650.401 213.564 650.401 224.739C650.401 235.913 648.152 245.738 643.654 254.213C639.156 262.641 632.693 269.223 624.265 273.957C615.837 278.645 605.704 280.989 593.867 280.989ZM594.151 252.011C597.466 252.011 600.33 250.899 602.745 248.673C605.16 246.448 607.03 243.276 608.356 239.156C609.682 235.037 610.344 230.136 610.344 224.455C610.344 218.725 609.682 213.825 608.356 209.753C607.03 205.634 605.16 202.461 602.745 200.236C600.33 198.01 597.466 196.898 594.151 196.898C590.647 196.898 587.641 198.01 585.131 200.236C582.622 202.461 580.704 205.634 579.379 209.753C578.053 213.825 577.39 218.725 577.39 224.455C577.39 230.136 578.053 235.037 579.379 239.156C580.704 243.276 582.622 246.448 585.131 248.673C587.641 250.899 590.647 252.011 594.151 252.011ZM706.154 279V169.909H745.359V279H706.154ZM725.756 158.545C720.453 158.545 715.908 156.794 712.12 153.29C708.332 149.786 706.438 145.572 706.438 140.648C706.438 135.723 708.332 131.509 712.12 128.006C715.908 124.502 720.453 122.75 725.756 122.75C731.107 122.75 735.652 124.502 739.393 128.006C743.181 131.509 745.075 135.723 745.075 140.648C745.075 145.572 743.181 149.786 739.393 153.29C735.652 156.794 731.107 158.545 725.756 158.545ZM830.391 169.909V198.318H758.516V169.909H830.391ZM772.436 143.773H811.641V243.915C811.641 245.43 811.901 246.708 812.422 247.75C812.943 248.744 813.748 249.502 814.837 250.023C815.926 250.496 817.322 250.733 819.027 250.733C820.211 250.733 821.584 250.591 823.146 250.307C824.756 250.023 825.94 249.786 826.697 249.597L832.379 277.153C830.627 277.674 828.118 278.313 824.851 279.071C821.631 279.829 817.796 280.326 813.345 280.562C804.349 281.036 796.797 280.113 790.689 277.793C784.581 275.425 779.988 271.708 776.911 266.642C773.833 261.576 772.341 255.231 772.436 247.608V143.773Z" fill="white"/>
<path opacity="0.7" d="M674.284 271.545L650.136 417H617.182L577.409 340.58H576.557L563.773 417H524.284L548.432 271.545H581.955L621.159 347.682H622.295L634.795 271.545H674.284ZM817.372 346.83C814.721 362.644 809.465 375.902 801.605 386.602C793.745 397.303 784.205 405.376 772.983 410.821C761.761 416.266 749.759 418.989 736.974 418.989C723.338 418.989 711.501 416.029 701.463 410.111C691.425 404.192 684.11 395.527 679.517 384.116C674.924 372.705 674.001 358.761 676.747 342.284C679.304 326.47 684.512 313.165 692.372 302.369C700.232 291.574 709.82 283.406 721.136 277.866C732.453 272.327 744.55 269.557 757.429 269.557C770.971 269.557 782.737 272.54 792.727 278.506C802.765 284.472 810.057 293.207 814.602 304.713C819.195 316.219 820.118 330.258 817.372 346.83ZM777.599 342.284C778.925 333.951 779.02 326.943 777.884 321.261C776.747 315.532 774.356 311.223 770.71 308.335C767.064 305.4 762.164 303.932 756.009 303.932C749.001 303.932 742.798 305.636 737.401 309.045C732.003 312.455 727.528 317.355 723.977 323.747C720.426 330.139 717.94 337.833 716.52 346.83C715.005 355.258 714.863 362.265 716.094 367.852C717.372 373.439 719.882 377.63 723.622 380.423C727.41 383.217 732.334 384.614 738.395 384.614C745.308 384.614 751.416 382.956 756.719 379.642C762.069 376.328 766.496 371.522 770 365.224C773.551 358.927 776.084 351.28 777.599 342.284ZM847.747 417L828.997 271.545H873.031L878.145 361.034H879.281L917.634 271.545H952.293L961.099 361.318H962.236L996.895 271.545H1040.93L973.884 417H936.099L925.02 335.75H923.884L885.531 417H847.747Z" fill="#00507A"/>
</svg>
